<svg width="32" height="32" viewBox="0 0 32 32" fill="none" xmlns="http://www.w3.org/2000/svg">
<g clip-path="url(#clip0_1_3)">
<path d="M28.4775 12.0535L28.4576 12.0343C28.456 12.0332 28.4547 12.0318 28.4539 12.0301L16.0005 0L3.54726 12.0298C3.54583 12.0312 3.54503 12.0331 3.5436 12.034L3.52302 12.0532C1.61877 13.903 0.40922 16.3147 0.0866904 18.9048C-0.23584 21.495 0.347152 24.115 1.74298 26.3483C3.13882 28.5816 5.26739 30.3002 7.79034 31.2308C10.3133 32.1612 13.0858 32.2502 15.6671 31.4837C15.8844 31.4194 16.1165 31.4194 16.3338 31.4837C18.9149 32.2498 21.6873 32.1606 24.21 31.2302C26.7328 30.2996 28.8612 28.5812 30.2569 26.348C31.6527 24.1148 32.2357 21.495 31.9134 18.905C31.5909 16.315 30.3815 13.9034 28.4775 12.0535ZM7.97547 19.9864C7.91485 20.045 7.86679 20.1146 7.83401 20.191C7.8012 20.2674 7.78432 20.3494 7.78432 20.4322C7.80649 22.5554 8.42765 24.6325 9.58096 26.4401C9.60718 26.4811 9.61928 26.5291 9.61555 26.5771C9.61183 26.6251 9.59249 26.6708 9.56026 26.7076C9.52806 26.7444 9.48464 26.7703 9.43619 26.7818C9.38778 26.7933 9.33681 26.7898 9.29063 26.7716C8.4236 26.4193 7.63595 25.9071 6.9717 25.2639C5.61048 23.9487 4.84522 22.1654 4.84398 20.3056C4.84274 18.4458 5.60564 16.6615 6.96514 15.3448L16.0005 6.61751L25.0354 15.3448C26.3952 16.6614 27.1583 18.4457 27.157 20.3056C27.1559 22.1654 26.3905 23.9487 25.0292 25.2639C24.3649 25.9071 23.5773 26.4193 22.7104 26.7716C22.6641 26.7898 22.6132 26.7933 22.5648 26.7818C22.5164 26.7703 22.4729 26.7442 22.4406 26.7076C22.4085 26.6708 22.389 26.6251 22.3853 26.5769C22.3816 26.529 22.3937 26.481 22.4199 26.4399C23.5734 24.6325 24.1949 22.5554 24.2175 20.4322C24.2175 20.3494 24.2004 20.2674 24.1674 20.1908C24.1345 20.1142 24.0862 20.0448 24.0255 19.9862L19.7519 15.6075C19.7093 15.5731 19.6557 15.5544 19.6002 15.5544C19.5449 15.5544 19.4912 15.5731 19.4488 15.6075C19.4062 15.6417 19.3775 15.6893 19.3676 15.742C19.3576 15.7946 19.3671 15.8489 19.3944 15.8955C21.0542 18.7969 19.6269 22.9644 17.2468 25.2639L17.2342 25.276C16.9057 25.59 16.4622 25.766 16.0002 25.7658C15.5381 25.7656 15.0947 25.5894 14.7664 25.2753L14.7549 25.2639C12.3738 22.9644 10.9473 18.7974 12.6074 15.8961C12.6347 15.8495 12.6442 15.7953 12.6342 15.7426C12.6243 15.69 12.5956 15.6423 12.553 15.6081C12.5105 15.5738 12.4569 15.555 12.4015 15.555C12.3461 15.555 12.2924 15.5738 12.2499 15.6081L7.97547 19.9864Z" fill="url(#paint0_linear_1_3)"/>
</g>
<defs>
<linearGradient id="paint0_linear_1_3" x1="15.999" y1="2.63863" x2="15.999" y2="32.0406" gradientUnits="userSpaceOnUse">
<stop stop-color="#551AFE"/>
<stop offset="1" stop-color="#FE1A95"/>
</linearGradient>
<clipPath id="clip0_1_3">
<rect width="32" height="32" fill="white"/>
</clipPath>
</defs>
</svg>
